<?xml version="1.0" encoding="UTF-8"?>
<!DOCTYPE svg PUBLIC "-//W3C//DTD SVG 1.1//EN" "http://www.w3.org/Graphics/SVG/1.1/DTD/svg11.dtd">
<!-- Creator: CorelDRAW 2021 (64 Bit) -->
<svg xmlns="http://www.w3.org/2000/svg" xml:space="preserve" width="16.9334mm" height="16.9334mm" version="1.1" style="shape-rendering:geometricPrecision; text-rendering:geometricPrecision; image-rendering:optimizeQuality; fill-rule:evenodd; clip-rule:evenodd"
viewBox="0 0 445.99 445.99"
 xmlns:xlink="http://www.w3.org/1999/xlink"
 xmlns:xodm="http://www.corel.com/coreldraw/odm/2003">
 <defs>
  <style type="text/css">
   <![CDATA[
    .fil0 {fill:#8F8F8F}
   ]]>
  </style>
 </defs>
 <g id="Camada_x0020_1">
  <metadata id="CorelCorpID_0Corel-Layer"/>
  <path class="fil0" d="M90.59 160.28l0 47.91 -65.48 -5.08c-6.36,-0.64 -13.52,0.48 -9.57,-10.71 12.14,-34.37 23.77,-71.25 35.52,-106.49 11.58,-34.72 11.04,-32.22 48.34,-45.74l34.74 -13.17c2.5,5.2 2.58,13.51 11.14,27.18 15.34,24.51 43.36,43.37 73.35,43.37 28.62,0 42.48,-5.25 64.1,-22.14 9.63,-7.52 19.23,-21.73 24.15,-33.34 1.03,-2.42 1.64,-4.65 2.47,-7.12 0.67,-2.01 1.62,-6.14 2.5,-7.96 5.07,2.43 11.28,4.26 17.05,6.47 5.93,2.27 11.58,4.42 17.05,6.47 38.89,14.48 37.13,10.41 48.76,45.31 3.92,11.78 8.05,24.16 11.97,35.94 7.86,23.58 15.43,47.38 23.53,70.56 1.05,2.99 2.62,5.37 0.75,8.3 -2.08,3.24 -4.6,2.65 -9.28,3l-66.29 5.14 0 -47.91c0,-8.21 -13.97,-11.88 -13.99,2.57l0.05 250.05c-10.54,5.06 -42.26,11.68 -55,13.82 -14.32,2.41 -47.6,5.35 -63.47,5.35 -34.52,0 -72.56,-5.38 -105.3,-14.91 -4.04,-1.17 -9.55,-2.52 -13.17,-4.25l0.04 -249.17c0.11,-16.09 -13.97,-11.35 -13.97,-3.45zm147.1 285.72l-28.94 0c-24.78,-0.87 -49.41,-3.97 -73.24,-9.21 -12.78,-2.81 -22.36,-5.82 -33.93,-9.62 -13.81,-4.54 -10.99,-4.43 -10.99,-31.69 0,-57.49 0,-114.98 0,-172.48 -9.53,-0.79 -74.27,-5.32 -78.75,-7.49 -8.67,-4.21 -11.85,-9.7 -11.85,-19.51 0,-4.53 8.77,-29.34 10.78,-35.39 5.89,-17.68 29.35,-90.42 34.24,-101.64 9.56,-21.92 36.33,-27.21 56.52,-34.95 11.27,-4.32 21.56,-8.31 32.93,-12.37 5.82,-2.08 10.74,-3.92 16.48,-6.17 3.99,-1.56 12.85,-5.48 17.17,-5.48l109.76 0c4.47,0 13.57,4.11 17.79,5.73l49.41 18.53c20.15,7.5 46.94,13.21 56.14,35.33 5.44,13.07 17.68,52.08 23.11,68.35 3.72,11.18 7.51,22.52 11.32,33.97 2.31,6.94 10.34,27.77 10.34,34.95 0,21.38 -21.1,21.35 -37.46,21.77l-53.13 4.36c0,57.49 0,114.98 0,172.48 0,28.76 2.87,27.07 -11.65,31.9 -33.77,11.22 -69.8,17.34 -106.05,18.62zm-89.61 -424.22c4.76,-1.11 8.07,-3.19 13.07,-4.35 0.28,12.57 8.74,23.12 15.67,32.24 6.68,8.77 26.3,20.03 41.82,20.03 24.97,0 37.92,-5.85 53.34,-23.32 2.18,-2.47 3.83,-5.33 5.63,-8.31 2.96,-4.92 7.08,-13.55 7.24,-20.64 4.09,0.34 9.04,3.42 13.07,4.35 -2.79,11.99 -8.16,25.68 -16.33,34.19l-8.71 8.71c-28.28,26.29 -72.61,24.97 -103.63,-3.08 -2.01,-1.82 -2,-2.66 -3.95,-4.76 -6.6,-7.1 -13,-18.53 -15.47,-28.08 -0.45,-1.72 -1.13,-5.65 -1.73,-6.98zm27 -7.84l95.82 0c-2.86,34.3 -50.32,56.96 -79.93,29.41 -7.69,-7.16 -14.24,-16.56 -15.88,-29.41z"/>
 </g>
</svg>
