<?xml version="1.0" encoding="UTF-8"?>
<!DOCTYPE svg PUBLIC "-//W3C//DTD SVG 1.0//EN" "http://www.w3.org/TR/2001/REC-SVG-20010904/DTD/svg10.dtd">
<!-- Creator: CorelDRAW 2021 (64 Bit) -->
<svg xmlns="http://www.w3.org/2000/svg" xml:space="preserve" width="6.5103mm" height="6.5103mm" version="1.0" shape-rendering="geometricPrecision" text-rendering="geometricPrecision" image-rendering="optimizeQuality" fill-rule="evenodd" clip-rule="evenodd"
viewBox="0 0 637.07 637.07"
 xmlns:xlink="http://www.w3.org/1999/xlink"
 xmlns:xodm="http://www.corel.com/coreldraw/odm/2003">
 <g id="Camada_x0020_1">
  <metadata id="CorelCorpID_0Corel-Layer"/>
  <g id="_2913289762304">
   <path fill="white" fill-rule="nonzero" d="M441.32 349.53l14.63 -95.49 -91.6 0 0 -61.98c-0.64,-7.13 0.33,-14.32 2.85,-21.03 2.51,-6.7 6.5,-12.76 11.66,-17.71 5.18,-4.95 11.39,-8.68 18.19,-10.91 6.81,-2.23 14.03,-2.9 21.13,-1.96l41.66 0 0 -81.29c-24.45,-3.95 -49.17,-6.11 -73.94,-6.45 -75.48,0 -124.78,45.72 -124.78,128.49l0 72.8 -83.88 0 0 95.49 83.86 0 0 230.84c17.08,2.68 34.34,4.02 51.63,4.01 17.28,0.01 34.54,-1.33 51.62,-4.01l0 -230.84 76.97 0.03z"/>
   <rect fill="none" x="-0" y="-0" width="637.07" height="637.07"/>
  </g>
 </g>
</svg>
