<svg xmlns="http://www.w3.org/2000/svg" width="22.5mm" height="16.289mm" version="1.0" viewBox="0 0 2249.98 1628.89">
   <path fill="none" stroke="#8F8F8F" stroke-width="64.05" stroke-linecap="round" stroke-linejoin="round" stroke-miterlimit="22.9256" d="M511.27 827.11l0 0c403.57,75.68 807.1,193.38 1193.85,336.29l176.53 67.28 -168.13 168.13c-227,227 -580.14,260.61 -849.15,92.49l-344.7 -235.4c-142.92,-84.08 -319.49,-117.7 -487.64,-84.08l0 0 479.24 -344.7z"/>
   <path fill="none" stroke="#8F8F8F" stroke-width="64.05" stroke-linecap="round" stroke-linejoin="round" stroke-miterlimit="22.9256" d="M511.27 827.11l151.32 -437.18c33.62,-109.29 117.7,-193.38 218.6,-243.81l0 0c277.46,-126.11 596.91,-84.08 832.35,109.29l16.81 16.81c168.13,134.51 252.21,353.1 218.6,571.72l-67.28 411.97 336.29 0 0 -529.67c0,-175.11 -68.93,-350.25 -194.31,-475.35 -162.95,-162.61 -727.5,-340.98 -1142.46,-104.77"/>
</svg>
